<svg xmlns="http://www.w3.org/2000/svg" viewBox="0 0 119.06 11.34"><defs><style>.cls-1{fill:#a8aba4;}.cls-2{fill:#4d514d;}</style></defs><g id="Calque_2" data-name="Calque 2"><g id="Calque_1-2" data-name="Calque 1"><polygon class="cls-1" points="1.28 5.65 2.55 5.65 2.55 7.06 3.93 7.06 3.93 8.47 5.83 8.47 5.83 9.89 7.61 9.89 7.61 11.3 8.69 11.3 9.8 11.3 9.8 9.89 11.59 9.89 11.59 8.47 13.49 8.47 13.49 7.06 14.86 7.06 14.86 5.65 16.13 5.65 16.13 4.24 17.34 4.24 17.34 2.83 16.03 2.83 16.03 1.41 14.73 1.41 14.73 0 11.1 0 11.1 1.41 9.8 1.41 9.8 2.83 8.69 2.83 7.51 2.83 7.51 1.41 6.21 1.41 6.21 0 2.58 0 2.58 1.41 1.28 1.41 1.28 2.83 0.17 2.83 0.17 4.24 1.28 4.24 1.28 5.65"/><polygon class="cls-1" points="21.63 5.65 22.89 5.65 22.89 7.06 24.27 7.06 24.27 8.47 26.17 8.47 26.17 9.89 27.96 9.89 27.96 11.3 29.04 11.3 30.15 11.3 30.15 9.89 31.93 9.89 31.93 8.47 33.83 8.47 33.83 7.06 35.21 7.06 35.21 5.65 36.48 5.65 36.48 4.24 37.68 4.24 37.68 2.83 36.37 2.83 36.37 1.41 35.08 1.41 35.08 0 31.44 0 31.44 1.41 30.15 1.41 30.15 2.83 29.04 2.83 27.85 2.83 27.85 1.41 26.56 1.41 26.56 0 22.92 0 22.92 1.41 21.63 1.41 21.63 2.83 20.51 2.83 20.51 4.24 21.63 4.24 21.63 5.65"/><polygon class="cls-1" points="41.97 5.65 43.24 5.65 43.24 7.06 44.62 7.06 44.62 8.47 46.52 8.47 46.52 9.89 48.3 9.89 48.3 11.3 49.38 11.3 50.49 11.3 50.49 9.89 52.28 9.89 52.28 8.47 54.18 8.47 54.18 7.06 55.55 7.06 55.55 5.65 56.82 5.65 56.82 4.24 58.03 4.24 58.03 2.83 56.72 2.83 56.72 1.41 55.42 1.41 55.42 0 51.79 0 51.79 1.41 50.49 1.41 50.49 2.83 49.38 2.83 48.2 2.83 48.2 1.41 46.9 1.41 46.9 0 43.27 0 43.27 1.41 41.97 1.41 41.97 2.83 40.85 2.83 40.85 4.24 41.97 4.24 41.97 5.65"/><polygon class="cls-1" points="62.32 5.65 63.58 5.65 63.58 7.06 64.96 7.06 64.96 8.47 66.86 8.47 66.86 9.89 68.65 9.89 68.65 11.3 69.73 11.3 70.84 11.3 70.84 9.89 72.62 9.89 72.62 8.47 74.52 8.47 74.52 7.06 75.9 7.06 75.9 5.65 77.17 5.65 77.17 4.24 78.37 4.24 78.37 2.83 77.06 2.83 77.06 1.41 75.77 1.41 75.77 0 72.13 0 72.13 1.41 70.84 1.41 70.84 2.83 69.73 2.83 68.54 2.83 68.54 1.41 67.25 1.41 67.25 0 63.61 0 63.61 1.41 62.32 1.41 62.32 2.83 61.2 2.83 61.2 4.24 62.32 4.24 62.32 5.65"/><polygon class="cls-1" points="82.66 5.65 83.93 5.65 83.93 7.06 85.31 7.06 85.31 8.47 87.2 8.47 87.2 9.89 88.99 9.89 88.99 11.3 90.07 11.3 91.18 11.3 91.18 9.89 92.97 9.89 92.97 8.47 94.86 8.47 94.86 7.06 96.24 7.06 96.24 5.65 97.51 5.65 97.51 4.24 98.72 4.24 98.72 2.83 97.41 2.83 97.41 1.41 96.11 1.41 96.11 0 92.48 0 92.48 1.41 91.18 1.41 91.18 2.83 90.07 2.83 88.89 2.83 88.89 1.41 87.59 1.41 87.59 0 83.96 0 83.96 1.41 82.66 1.41 82.66 2.83 81.54 2.83 81.54 4.24 82.66 4.24 82.66 5.65"/><polygon class="cls-1" points="103.01 5.65 104.27 5.65 104.27 7.06 105.65 7.06 105.65 8.47 107.55 8.47 107.55 9.89 109.34 9.89 109.34 11.3 110.42 11.3 111.53 11.3 111.53 9.89 113.31 9.89 113.31 8.47 115.21 8.47 115.21 7.06 116.59 7.06 116.59 5.65 117.86 5.65 117.86 4.24 119.06 4.24 119.06 2.83 117.75 2.83 117.75 1.41 116.45 1.41 116.45 0 112.82 0 112.82 1.41 111.53 1.41 111.53 2.83 110.42 2.83 109.23 2.83 109.23 1.41 107.94 1.41 107.94 0 104.3 0 104.3 1.41 103.01 1.41 103.01 2.83 101.89 2.83 101.89 4.24 103.01 4.24 103.01 5.65"/><polygon class="cls-2" points="1.12 5.69 2.38 5.69 2.38 7.1 3.76 7.1 3.76 8.52 5.66 8.52 5.66 9.93 7.45 9.93 7.45 11.34 8.53 11.34 9.64 11.34 9.64 9.93 11.42 9.93 11.42 8.52 13.32 8.52 13.32 7.1 14.7 7.1 14.7 5.69 15.96 5.69 15.96 4.28 17.17 4.28 17.17 2.87 15.86 2.87 15.86 1.45 14.56 1.45 14.56 0.04 10.93 0.04 10.93 1.45 9.64 1.45 9.64 2.87 8.53 2.87 7.34 2.87 7.34 1.45 6.05 1.45 6.05 0.04 2.41 0.04 2.41 1.45 1.12 1.45 1.12 2.87 0 2.87 0 4.28 1.12 4.28 1.12 5.69"/><polygon class="cls-2" points="21.46 5.69 22.73 5.69 22.73 7.1 24.11 7.1 24.11 8.52 26 8.52 26 9.93 27.79 9.93 27.79 11.34 28.87 11.34 29.98 11.34 29.98 9.93 31.77 9.93 31.77 8.52 33.67 8.52 33.67 7.1 35.04 7.1 35.04 5.69 36.31 5.69 36.31 4.28 37.52 4.28 37.52 2.87 36.21 2.87 36.21 1.45 34.91 1.45 34.91 0.04 31.28 0.04 31.28 1.45 29.98 1.45 29.98 2.87 28.87 2.87 27.69 2.87 27.69 1.45 26.39 1.45 26.39 0.04 22.76 0.04 22.76 1.45 21.46 1.45 21.46 2.87 20.34 2.87 20.34 4.28 21.46 4.28 21.46 5.69"/></g></g></svg>