<svg xmlns="http://www.w3.org/2000/svg" viewBox="0 0 119.24 11.34"><defs><style>.cls-1{fill:#a8aba4;}.cls-2{fill:#4d514d;}</style></defs><g id="Calque_2" data-name="Calque 2"><g id="Calque_1-2" data-name="Calque 1"><polygon class="cls-1" points="1.46 5.65 2.72 5.65 2.72 7.06 4.1 7.06 4.1 8.47 6 8.47 6 9.89 7.78 9.89 7.78 11.3 8.87 11.3 9.97 11.3 9.97 9.89 11.76 9.89 11.76 8.47 13.66 8.47 13.66 7.06 15.04 7.06 15.04 5.65 16.3 5.65 16.3 4.24 17.51 4.24 17.51 2.83 16.2 2.83 16.2 1.41 14.9 1.41 14.9 0 11.27 0 11.27 1.41 9.97 1.41 9.97 2.83 8.87 2.83 7.68 2.83 7.68 1.41 6.38 1.41 6.38 0 2.75 0 2.75 1.41 1.46 1.41 1.46 2.83 0.34 2.83 0.34 4.24 1.46 4.24 1.46 5.65"/><polygon class="cls-1" points="21.8 5.65 23.07 5.65 23.07 7.06 24.44 7.06 24.44 8.47 26.34 8.47 26.34 9.89 28.13 9.89 28.13 11.3 29.21 11.3 30.32 11.3 30.32 9.89 32.1 9.89 32.1 8.47 34 8.47 34 7.06 35.38 7.06 35.38 5.65 36.65 5.65 36.65 4.24 37.86 4.24 37.86 2.83 36.54 2.83 36.54 1.41 35.25 1.41 35.25 0 31.61 0 31.61 1.41 30.32 1.41 30.32 2.83 29.21 2.83 28.02 2.83 28.02 1.41 26.73 1.41 26.73 0 23.1 0 23.1 1.41 21.8 1.41 21.8 2.83 20.68 2.83 20.68 4.24 21.8 4.24 21.8 5.65"/><polygon class="cls-1" points="42.15 5.65 43.41 5.65 43.41 7.06 44.79 7.06 44.79 8.47 46.69 8.47 46.69 9.89 48.47 9.89 48.47 11.3 49.56 11.3 50.66 11.3 50.66 9.89 52.45 9.89 52.45 8.47 54.35 8.47 54.35 7.06 55.73 7.06 55.73 5.65 56.99 5.65 56.99 4.24 58.2 4.24 58.2 2.83 56.89 2.83 56.89 1.41 55.59 1.41 55.59 0 51.96 0 51.96 1.41 50.66 1.41 50.66 2.83 49.56 2.83 48.37 2.83 48.37 1.41 47.07 1.41 47.07 0 43.44 0 43.44 1.41 42.15 1.41 42.15 2.83 41.03 2.83 41.03 4.24 42.15 4.24 42.15 5.65"/><polygon class="cls-1" points="62.49 5.65 63.76 5.65 63.76 7.06 65.13 7.06 65.13 8.47 67.03 8.47 67.03 9.89 68.82 9.89 68.82 11.3 69.9 11.3 71.01 11.3 71.01 9.89 72.8 9.89 72.8 8.47 74.69 8.47 74.69 7.06 76.07 7.06 76.07 5.65 77.34 5.65 77.34 4.24 78.55 4.24 78.55 2.83 77.23 2.83 77.23 1.41 75.94 1.41 75.94 0 72.31 0 72.31 1.41 71.01 1.41 71.01 2.83 69.9 2.83 68.72 2.83 68.72 1.41 67.42 1.41 67.42 0 63.79 0 63.79 1.41 62.49 1.41 62.49 2.83 61.37 2.83 61.37 4.24 62.49 4.24 62.49 5.65"/><polygon class="cls-1" points="82.83 5.65 84.1 5.65 84.1 7.06 85.48 7.06 85.48 8.47 87.38 8.47 87.38 9.89 89.16 9.89 89.16 11.3 90.25 11.3 91.35 11.3 91.35 9.89 93.14 9.89 93.14 8.47 95.04 8.47 95.04 7.06 96.42 7.06 96.42 5.65 97.68 5.65 97.68 4.24 98.89 4.24 98.89 2.83 97.58 2.83 97.58 1.41 96.28 1.41 96.28 0 92.65 0 92.65 1.41 91.35 1.41 91.35 2.83 90.25 2.83 89.06 2.83 89.06 1.41 87.76 1.41 87.76 0 84.13 0 84.13 1.41 82.83 1.41 82.83 2.83 81.72 2.83 81.72 4.24 82.83 4.24 82.83 5.65"/><polygon class="cls-1" points="103.18 5.65 104.45 5.65 104.45 7.06 105.82 7.06 105.82 8.47 107.72 8.47 107.72 9.89 109.51 9.89 109.51 11.3 110.59 11.3 111.7 11.3 111.7 9.89 113.48 9.89 113.48 8.47 115.38 8.47 115.38 7.06 116.76 7.06 116.76 5.65 118.03 5.65 118.03 4.24 119.24 4.24 119.24 2.83 117.92 2.83 117.92 1.41 116.63 1.41 116.63 0 113 0 113 1.41 111.7 1.41 111.7 2.83 110.59 2.83 109.4 2.83 109.4 1.41 108.11 1.41 108.11 0 104.48 0 104.48 1.41 103.18 1.41 103.18 2.83 102.06 2.83 102.06 4.24 103.18 4.24 103.18 5.65"/><polygon class="cls-2" points="1.12 5.69 2.38 5.69 2.38 7.1 3.76 7.1 3.76 8.52 5.66 8.52 5.66 9.93 7.45 9.93 7.45 11.34 8.53 11.34 9.64 11.34 9.64 9.93 11.42 9.93 11.42 8.52 13.32 8.52 13.32 7.1 14.7 7.1 14.7 5.69 15.96 5.69 15.96 4.28 17.17 4.28 17.17 2.87 15.86 2.87 15.86 1.45 14.56 1.45 14.56 0.04 10.93 0.04 10.93 1.45 9.64 1.45 9.64 2.87 8.53 2.87 7.34 2.87 7.34 1.45 6.05 1.45 6.05 0.04 2.41 0.04 2.41 1.45 1.12 1.45 1.12 2.87 0 2.87 0 4.28 1.12 4.28 1.12 5.69"/><polygon class="cls-2" points="21.46 5.69 22.73 5.69 22.73 7.1 24.11 7.1 24.11 8.52 26 8.52 26 9.93 27.79 9.93 27.79 11.34 28.87 11.34 29.98 11.34 29.98 9.93 31.77 9.93 31.77 8.52 33.67 8.52 33.67 7.1 35.04 7.1 35.04 5.69 36.31 5.69 36.31 4.28 37.52 4.28 37.52 2.87 36.21 2.87 36.21 1.45 34.91 1.45 34.91 0.04 31.28 0.04 31.28 1.45 29.98 1.45 29.98 2.87 28.87 2.87 27.69 2.87 27.69 1.45 26.39 1.45 26.39 0.04 22.76 0.04 22.76 1.45 21.46 1.45 21.46 2.87 20.34 2.87 20.34 4.28 21.46 4.28 21.46 5.69"/><polygon class="cls-2" points="41.81 5.69 43.07 5.69 43.07 7.1 44.45 7.1 44.45 8.52 46.35 8.52 46.35 9.93 48.14 9.93 48.14 11.34 49.22 11.34 50.33 11.34 50.33 9.93 52.11 9.93 52.11 8.52 54.01 8.52 54.01 7.1 55.39 7.1 55.39 5.69 56.66 5.69 56.66 4.28 57.86 4.28 57.86 2.87 56.55 2.87 56.55 1.45 55.26 1.45 55.26 0.04 51.62 0.04 51.62 1.45 50.33 1.45 50.33 2.87 49.22 2.87 48.03 2.87 48.03 1.45 46.74 1.45 46.74 0.04 43.1 0.04 43.1 1.45 41.81 1.45 41.81 2.87 40.69 2.87 40.69 4.28 41.81 4.28 41.81 5.69"/></g></g></svg>