<svg xmlns="http://www.w3.org/2000/svg" viewBox="0 0 118.9 11.3"><defs><style>.cls-1{fill:#a8aba4;}.cls-2{fill:#4d514d;}</style></defs><g id="Calque_2" data-name="Calque 2"><g id="Calque_1-2" data-name="Calque 1"><polygon class="cls-1" points="1.12 5.65 2.38 5.65 2.38 7.06 3.76 7.06 3.76 8.47 5.66 8.47 5.66 9.89 7.45 9.89 7.45 11.3 8.53 11.3 9.64 11.3 9.64 9.89 11.42 9.89 11.42 8.47 13.32 8.47 13.32 7.06 14.7 7.06 14.7 5.65 15.96 5.65 15.96 4.24 17.17 4.24 17.17 2.83 15.86 2.83 15.86 1.41 14.56 1.41 14.56 0 10.93 0 10.93 1.41 9.64 1.41 9.64 2.83 8.53 2.83 7.34 2.83 7.34 1.41 6.05 1.41 6.05 0 2.41 0 2.41 1.41 1.12 1.41 1.12 2.83 0 2.83 0 4.24 1.12 4.24 1.12 5.65"/><polygon class="cls-1" points="21.46 5.65 22.73 5.65 22.73 7.06 24.11 7.06 24.11 8.47 26 8.47 26 9.89 27.79 9.89 27.79 11.3 28.87 11.3 29.98 11.3 29.98 9.89 31.77 9.89 31.77 8.47 33.67 8.47 33.67 7.06 35.04 7.06 35.04 5.65 36.31 5.65 36.31 4.24 37.52 4.24 37.52 2.83 36.21 2.83 36.21 1.41 34.91 1.41 34.91 0 31.28 0 31.28 1.41 29.98 1.41 29.98 2.83 28.87 2.83 27.69 2.83 27.69 1.41 26.39 1.41 26.39 0 22.76 0 22.76 1.41 21.46 1.41 21.46 2.83 20.34 2.83 20.34 4.24 21.46 4.24 21.46 5.65"/><polygon class="cls-1" points="41.81 5.65 43.07 5.65 43.07 7.06 44.45 7.06 44.45 8.47 46.35 8.47 46.35 9.89 48.14 9.89 48.14 11.3 49.22 11.3 50.33 11.3 50.33 9.89 52.11 9.89 52.11 8.47 54.01 8.47 54.01 7.06 55.39 7.06 55.39 5.65 56.66 5.65 56.66 4.24 57.86 4.24 57.86 2.83 56.55 2.83 56.55 1.41 55.26 1.41 55.26 0 51.62 0 51.62 1.41 50.33 1.41 50.33 2.83 49.22 2.83 48.03 2.83 48.03 1.41 46.74 1.41 46.74 0 43.1 0 43.1 1.41 41.81 1.41 41.81 2.83 40.69 2.83 40.69 4.24 41.81 4.24 41.81 5.65"/><polygon class="cls-1" points="62.15 5.65 63.42 5.65 63.42 7.06 64.8 7.06 64.8 8.47 66.69 8.47 66.69 9.89 68.48 9.89 68.48 11.3 69.56 11.3 70.67 11.3 70.67 9.89 72.46 9.89 72.46 8.47 74.36 8.47 74.36 7.06 75.73 7.06 75.73 5.65 77 5.65 77 4.24 78.21 4.24 78.21 2.83 76.9 2.83 76.9 1.41 75.6 1.41 75.6 0 71.97 0 71.97 1.41 70.67 1.41 70.67 2.83 69.56 2.83 68.38 2.83 68.38 1.41 67.08 1.41 67.08 0 63.45 0 63.45 1.41 62.15 1.41 62.15 2.83 61.03 2.83 61.03 4.24 62.15 4.24 62.15 5.65"/><polygon class="cls-1" points="82.5 5.65 83.76 5.65 83.76 7.06 85.14 7.06 85.14 8.47 87.04 8.47 87.04 9.89 88.83 9.89 88.83 11.3 89.91 11.3 91.02 11.3 91.02 9.89 92.8 9.89 92.8 8.47 94.7 8.47 94.7 7.06 96.08 7.06 96.08 5.65 97.34 5.65 97.34 4.24 98.55 4.24 98.55 2.83 97.24 2.83 97.24 1.41 95.94 1.41 95.94 0 92.31 0 92.31 1.41 91.02 1.41 91.02 2.83 89.91 2.83 88.72 2.83 88.72 1.41 87.43 1.41 87.43 0 83.79 0 83.79 1.41 82.5 1.41 82.5 2.83 81.38 2.83 81.38 4.24 82.5 4.24 82.5 5.65"/><polygon class="cls-1" points="102.84 5.65 104.11 5.65 104.11 7.06 105.49 7.06 105.49 8.47 107.39 8.47 107.39 9.89 109.17 9.89 109.17 11.3 110.25 11.3 111.36 11.3 111.36 9.89 113.15 9.89 113.15 8.47 115.05 8.47 115.05 7.06 116.42 7.06 116.42 5.65 117.69 5.65 117.69 4.24 118.9 4.24 118.9 2.83 117.59 2.83 117.59 1.41 116.29 1.41 116.29 0 112.66 0 112.66 1.41 111.36 1.41 111.36 2.83 110.25 2.83 109.07 2.83 109.07 1.41 107.77 1.41 107.77 0 104.14 0 104.14 1.41 102.84 1.41 102.84 2.83 101.72 2.83 101.72 4.24 102.84 4.24 102.84 5.65"/><polygon class="cls-2" points="1.46 5.65 2.73 5.65 2.73 7.06 4.11 7.06 4.11 8.47 6 8.47 6 9.89 7.79 9.89 7.79 11.3 8.87 11.3 9.98 11.3 9.98 9.89 11.77 9.89 11.77 8.47 13.67 8.47 13.67 7.06 15.04 7.06 15.04 5.65 16.31 5.65 16.31 4.24 17.52 4.24 17.52 2.83 16.21 2.83 16.21 1.41 14.91 1.41 14.91 0 11.28 0 11.28 1.41 9.98 1.41 9.98 2.83 8.87 2.83 7.69 2.83 7.69 1.41 6.39 1.41 6.39 0 2.76 0 2.76 1.41 1.46 1.41 1.46 2.83 0.34 2.83 0.34 4.24 1.46 4.24 1.46 5.65"/><polygon class="cls-2" points="21.81 5.65 23.07 5.65 23.07 7.06 24.45 7.06 24.45 8.47 26.35 8.47 26.35 9.89 28.14 9.89 28.14 11.3 29.22 11.3 30.33 11.3 30.33 9.89 32.11 9.89 32.11 8.47 34.01 8.47 34.01 7.06 35.39 7.06 35.39 5.65 36.66 5.65 36.66 4.24 37.86 4.24 37.86 2.83 36.55 2.83 36.55 1.41 35.26 1.41 35.26 0 31.62 0 31.62 1.41 30.33 1.41 30.33 2.83 29.22 2.83 28.03 2.83 28.03 1.41 26.74 1.41 26.74 0 23.1 0 23.1 1.41 21.81 1.41 21.81 2.83 20.69 2.83 20.69 4.24 21.81 4.24 21.81 5.65"/><polygon class="cls-2" points="42.15 5.65 43.42 5.65 43.42 7.06 44.8 7.06 44.8 8.47 46.7 8.47 46.7 9.89 48.48 9.89 48.48 11.3 49.56 11.3 50.67 11.3 50.67 9.89 52.46 9.89 52.46 8.47 54.36 8.47 54.36 7.06 55.73 7.06 55.73 5.65 57 5.65 57 4.24 58.21 4.24 58.21 2.83 56.9 2.83 56.9 1.41 55.6 1.41 55.6 0 51.97 0 51.97 1.41 50.67 1.41 50.67 2.83 49.56 2.83 48.38 2.83 48.38 1.41 47.08 1.41 47.08 0 43.45 0 43.45 1.41 42.15 1.41 42.15 2.83 41.03 2.83 41.03 4.24 42.15 4.24 42.15 5.65"/><polygon class="cls-2" points="62.5 5.65 63.76 5.65 63.76 7.06 65.14 7.06 65.14 8.47 67.04 8.47 67.04 9.89 68.83 9.89 68.83 11.3 69.91 11.3 71.02 11.3 71.02 9.89 72.8 9.89 72.8 8.47 74.7 8.47 74.7 7.06 76.08 7.06 76.08 5.65 77.34 5.65 77.34 4.24 78.55 4.24 78.55 2.83 77.24 2.83 77.24 1.41 75.94 1.41 75.94 0 72.31 0 72.31 1.41 71.02 1.41 71.02 2.83 69.91 2.83 68.72 2.83 68.72 1.41 67.43 1.41 67.43 0 63.79 0 63.79 1.41 62.5 1.41 62.5 2.83 61.38 2.83 61.38 4.24 62.5 4.24 62.5 5.65"/></g></g></svg>