<svg xmlns="http://www.w3.org/2000/svg" viewBox="0 0 61.77 61.77"><defs><style>.cls-1,.cls-3{fill:#4d514d;}.cls-2{fill:none;stroke:#4cc7f1;stroke-miterlimit:10;}.cls-3{font-size:7px;font-family:Montserrat-Light, Montserrat;font-weight:300;}</style></defs><g id="Calque_2" data-name="Calque 2"><g id="Calque_1-2" data-name="Calque 1"><path class="cls-1" d="M39.62,28.46a7.19,7.19,0,0,1-.95,1.72,4.53,4.53,0,0,1-1.13,1.11,5.31,5.31,0,0,1-1.23.58,4.1,4.1,0,0,1-1.27.18,9.39,9.39,0,0,1-1.2-.11,5.69,5.69,0,0,1-1.08-.27l-.87-.35a3.36,3.36,0,0,1-.57-.28l-.21-.12A12.22,12.22,0,0,1,27.5,35.4a7.92,7.92,0,0,1-4.79,1.65.55.55,0,0,1-.56-.56.5.5,0,0,1,.16-.39.54.54,0,0,1,.4-.16,6.83,6.83,0,0,0,4-1.34,10.52,10.52,0,0,0,3.13-3.67,7.69,7.69,0,0,1-.89.29,6.92,6.92,0,0,1-1,.16,5.29,5.29,0,0,1-1.13,0A4,4,0,0,1,25.64,31a4.55,4.55,0,0,1-1.15-.73,6,6,0,0,1-1-1.25,10,10,0,0,1-.93-1.82,9.84,9.84,0,0,1,2.67-.71,6,6,0,0,1,2.09.1,4.93,4.93,0,0,1,1.55.7,5.43,5.43,0,0,1,1.1,1,7.09,7.09,0,0,1,.7,1,17.07,17.07,0,0,0,1-3.62l-.23,0-.58,0c-.29,0-.58,0-.86,0a7.66,7.66,0,0,1-1-.12,7.07,7.07,0,0,1-1.1-.29,5.18,5.18,0,0,1-1.05-.53,4.27,4.27,0,0,1-.93-.81,4,4,0,0,1-.68-1.18,5.46,5.46,0,0,1-.36-1.59,7.19,7.19,0,0,1,1.67-.45,4.34,4.34,0,0,1,1.4,0,4.85,4.85,0,0,1,1.15.38,3.32,3.32,0,0,1,.91.62,7.08,7.08,0,0,1,.7.76,4.41,4.41,0,0,1,.52.78c.14.27.25.5.35.7s.15.37.2.49l.05.2c.09-1,.14-1.82.14-2.43l-.26-.2a5,5,0,0,1-.61-.55,8.24,8.24,0,0,1-.8-.89,6.72,6.72,0,0,1-.67-1.16,5,5,0,0,1-.41-1.4,4,4,0,0,1,.15-1.58,5.13,5.13,0,0,1,.87-1.73,6.53,6.53,0,0,1,1.59.77,4.11,4.11,0,0,1,1,1,4.45,4.45,0,0,1,.6,1.06,3.45,3.45,0,0,1,.26,1.11,7.47,7.47,0,0,1,0,1.06,4.58,4.58,0,0,1-.16,1c-.08.29-.16.54-.24.77a2.76,2.76,0,0,1-.21.52l-.09.19a5.34,5.34,0,0,1,0,.63c0,.38,0,.67,0,.89a2,2,0,0,1,.13-.23,6.11,6.11,0,0,1,.38-.54,5.42,5.42,0,0,1,.63-.72,5.87,5.87,0,0,1,.88-.69,5,5,0,0,1,1.14-.56,4.86,4.86,0,0,1,1.4-.18,5.54,5.54,0,0,1,1.65.3,6.85,6.85,0,0,1-.27,1.77,4.37,4.37,0,0,1-.62,1.3,4.32,4.32,0,0,1-.87.89,3.78,3.78,0,0,1-1,.57c-.36.12-.71.22-1.06.3a5,5,0,0,1-1,.11c-.32,0-.6,0-.84,0a5.71,5.71,0,0,1-.58-.05l-.22,0a18,18,0,0,1-.91,3.52l.23-.23c.1-.09.3-.26.62-.51a8.52,8.52,0,0,1,1-.65,6.09,6.09,0,0,1,1.24-.52,4.78,4.78,0,0,1,1.47-.25,4.73,4.73,0,0,1,1.6.29A5.64,5.64,0,0,1,39.62,28.46Z"/><circle class="cls-2" cx="30.89" cy="30.89" r="30.39"/><text class="cls-3" transform="translate(12.97 48.95)">Botanique</text></g></g></svg>