<svg xmlns="http://www.w3.org/2000/svg" viewBox="0 0 61.77 61.77"><defs><style>.cls-1{fill:none;stroke:#4cc7f1;stroke-miterlimit:10;}.cls-2,.cls-3{fill:#4d514d;}.cls-3{font-size:7px;font-family:Montserrat-Light, Montserrat;font-weight:300;}.cls-4{letter-spacing:0em;}</style></defs><g id="Calque_2" data-name="Calque 2"><g id="Calque_1-2" data-name="Calque 1"><circle class="cls-1" cx="30.89" cy="30.89" r="30.39"/><path class="cls-2" d="M42.89,17.48V34.29a2,2,0,0,1-2,2h-20a2,2,0,0,1-2-2V17.48a2,2,0,0,1,2-2h20a2,2,0,0,1,2,2Zm-19.21,2v-1.6a.82.82,0,0,0-.8-.8h-1.6a.74.74,0,0,0-.56.24.76.76,0,0,0-.24.56v1.6a.82.82,0,0,0,.8.8h1.6a.76.76,0,0,0,.56-.24A.74.74,0,0,0,23.68,19.48Zm0,4.8v-1.6a.77.77,0,0,0-.24-.56.76.76,0,0,0-.56-.24h-1.6a.74.74,0,0,0-.56.24.77.77,0,0,0-.24.56v1.6a.78.78,0,0,0,.24.57.73.73,0,0,0,.56.23h1.6a.75.75,0,0,0,.56-.23A.78.78,0,0,0,23.68,24.28Zm0,4.81v-1.6a.8.8,0,0,0-.8-.8h-1.6a.77.77,0,0,0-.56.23.78.78,0,0,0-.24.57v1.6a.77.77,0,0,0,.24.56.74.74,0,0,0,.56.24h1.6a.76.76,0,0,0,.56-.24A.77.77,0,0,0,23.68,29.09Zm0,4.8v-1.6a.74.74,0,0,0-.24-.56.76.76,0,0,0-.56-.24h-1.6a.82.82,0,0,0-.8.8v1.6a.76.76,0,0,0,.24.56.74.74,0,0,0,.56.24h1.6a.82.82,0,0,0,.8-.8Zm12.81-9.61v-6.4a.76.76,0,0,0-.24-.56.77.77,0,0,0-.56-.24H26.08a.77.77,0,0,0-.56.24.76.76,0,0,0-.24.56v6.4a.78.78,0,0,0,.24.57.76.76,0,0,0,.56.23h9.61a.76.76,0,0,0,.56-.23A.78.78,0,0,0,36.49,24.28Zm0,9.61v-6.4a.78.78,0,0,0-.24-.57.8.8,0,0,0-.56-.23H26.08a.8.8,0,0,0-.56.23.78.78,0,0,0-.24.57v6.4a.76.76,0,0,0,.24.56.77.77,0,0,0,.56.24h9.61a.77.77,0,0,0,.56-.24A.76.76,0,0,0,36.49,33.89Zm4.8-14.41v-1.6a.76.76,0,0,0-.24-.56.74.74,0,0,0-.56-.24h-1.6a.82.82,0,0,0-.8.8v1.6a.74.74,0,0,0,.24.56.76.76,0,0,0,.56.24h1.6a.82.82,0,0,0,.8-.8Zm0,4.8v-1.6a.77.77,0,0,0-.24-.56.74.74,0,0,0-.56-.24h-1.6a.76.76,0,0,0-.56.24.77.77,0,0,0-.24.56v1.6a.78.78,0,0,0,.24.57.75.75,0,0,0,.56.23h1.6a.73.73,0,0,0,.56-.23A.78.78,0,0,0,41.29,24.28Zm0,4.81v-1.6a.78.78,0,0,0-.24-.57.77.77,0,0,0-.56-.23h-1.6a.8.8,0,0,0-.8.8v1.6a.77.77,0,0,0,.24.56.76.76,0,0,0,.56.24h1.6a.74.74,0,0,0,.56-.24A.77.77,0,0,0,41.29,29.09Zm0,4.8v-1.6a.82.82,0,0,0-.8-.8h-1.6a.76.76,0,0,0-.56.24.74.74,0,0,0-.24.56v1.6a.82.82,0,0,0,.8.8h1.6a.74.74,0,0,0,.56-.24A.76.76,0,0,0,41.29,33.89Z"/><text class="cls-3" transform="translate(17.25 49.95)">Ci<tspan class="cls-4" x="6.84" y="0">n</tspan><tspan x="11.56" y="0">éma</tspan></text></g></g></svg>