<svg xmlns="http://www.w3.org/2000/svg" viewBox="0 0 98.1 126.33"><defs><style>.cls-1{font-size:10px;fill:#231f20;font-family:RetroGaming;letter-spacing:-0.01em;}.cls-2,.cls-4{fill:none;}.cls-2{stroke:#4cc7f1;stroke-miterlimit:10;}.cls-3{fill:#4d514d;}.cls-4{stroke:#4d514d;stroke-linecap:round;stroke-linejoin:round;}.cls-5{fill:#fff;}</style></defs><g id="Calque_2" data-name="Calque 2"><g id="Calque_1-2" data-name="Calque 1"><text class="cls-1" transform="translate(28.44 123.83)">Design</text><circle class="cls-2" cx="49.05" cy="49.05" r="48.55"/><path class="cls-3" d="M46.7,50.77A4.91,4.91,0,0,0,48,52.39a5.14,5.14,0,0,0,1.88,1v.88a5.73,5.73,0,0,1-1.61,4.33A5.89,5.89,0,0,1,44,60.22a6.17,6.17,0,0,1-2.71-.58,5,5,0,0,1-1.9-1.59,7.49,7.49,0,0,1-1.08-2.28A10,10,0,0,1,37.9,53l.51.37.77.55a6.13,6.13,0,0,0,.74.46,1.33,1.33,0,0,0,.57.21.65.65,0,0,0,.68-.46,6.3,6.3,0,0,1,.72-1.4,4.47,4.47,0,0,1,.87-.95,3.78,3.78,0,0,1,1.09-.59,6.76,6.76,0,0,1,1.29-.32C45.57,50.84,46.09,50.8,46.7,50.77Zm9.7-12.21A2.35,2.35,0,0,1,58,37.88a2.28,2.28,0,0,1,1.53.58,1.85,1.85,0,0,1,.65,1.46,4.22,4.22,0,0,1-.56,1.88q-4.14,7.83-5.79,9.37a3.9,3.9,0,0,1-2.72,1.13,3.65,3.65,0,0,1-2.7-1.15,3.78,3.78,0,0,1-1.12-2.74,3.44,3.44,0,0,1,1.14-2.64l7.95-7.21Z"/><line class="cls-4" x1="49.05" y1="107.77" x2="49.05" y2="77.03"/><path class="cls-5" d="M52.81,77.24A3.76,3.76,0,1,0,49.05,81,3.76,3.76,0,0,0,52.81,77.24Z"/><path class="cls-3" d="M53.31,77.24A4.26,4.26,0,1,1,49.05,73a4.26,4.26,0,0,1,4.26,4.26Zm-7.52,0A3.26,3.26,0,1,0,49.05,74a3.26,3.26,0,0,0-3.26,3.26Z"/></g></g></svg>