<svg xmlns="http://www.w3.org/2000/svg" viewBox="0 0 57.13 57.13"><defs><style>.cls-1{fill:none;stroke:#e8e8e7;stroke-miterlimit:10;}.cls-2{fill:#72ccf1;}.cls-3{fill:#a8aba4;}.cls-4{font-size:8px;fill:#4d514d;font-family:Montserrat-Bold, Montserrat;font-weight:700;}</style></defs><g id="Calque_2" data-name="Calque 2"><g id="Calque_1-2" data-name="Calque 1"><circle class="cls-1" cx="28.56" cy="28.56" r="28.06"/><path class="cls-2" d="M53,29.94H40.2A11.83,11.83,0,0,1,29.87,41.55V53.28A24.78,24.78,0,0,0,53,29.94Z"/><path class="cls-2" d="M39.91,27.19H53A24.78,24.78,0,0,0,29.87,3.84V18.08A11.85,11.85,0,0,1,39.91,27.19Z"/><path class="cls-3" d="M27.12,3.82A24.77,24.77,0,0,0,3.51,27.19H16.83a11.83,11.83,0,0,1,10.29-9.14Z"/><path class="cls-3" d="M16.53,29.94h-13A24.77,24.77,0,0,0,27.12,53.31V41.58A11.84,11.84,0,0,1,16.53,29.94Z"/><text class="cls-4" transform="translate(22.63 32.01)">ES</text></g></g></svg>