<svg xmlns="http://www.w3.org/2000/svg" viewBox="0 0 10 129.15"><defs><style>.cls-1{fill:#7e807b;}.cls-2{fill:#4d514d;}.cls-3{fill:#a8aba4;}</style></defs><g id="Calque_2" data-name="Calque 2"><g id="Calque_1-2" data-name="Calque 1"><rect class="cls-1" x="1.46" y="52.68" width="7.07" height="7.07"/><circle class="cls-2" cx="5" cy="3.63" r="3.63"/><path class="cls-3" d="M5,129.15a1,1,0,0,1-1-1V114.28a1,1,0,0,1,2,0v13.87A1,1,0,0,1,5,129.15Z"/><path class="cls-1" d="M5,102.06a1,1,0,0,1-1-1V63.19a1,1,0,0,1,2,0v37.87A1,1,0,0,1,5,102.06Z"/><path class="cls-2" d="M5,49.88a1,1,0,0,1-1-1V11a1,1,0,1,1,2,0V48.88A1,1,0,0,1,5,49.88Z"/><polygon class="cls-3" points="5 104.28 10 111.04 0 111.04 5 104.28"/></g></g></svg>