<svg xmlns="http://www.w3.org/2000/svg" viewBox="0 0 98.1 108.51"><defs><style>.cls-1,.cls-3{fill:none;}.cls-1{stroke:#4cc7f1;stroke-miterlimit:10;}.cls-2{fill:#4d514d;}.cls-3{stroke:#4d514d;stroke-linecap:round;stroke-linejoin:round;}.cls-4{fill:#fff;}</style></defs><g id="Calque_2" data-name="Calque 2"><g id="Calque_1-2" data-name="Calque 1"><circle class="cls-1" cx="49.05" cy="49.05" r="48.55"/><path class="cls-2" d="M51.1,41.11,57,47,43.24,60.75H37.35V54.86ZM42.42,58.79l2.38-2.38L41.69,53.3l-2.38,2.38v1.14h2v2Zm9-14.06a.46.46,0,1,0-.65-.65l-7.16,7.16a.42.42,0,0,0,0,.67.41.41,0,0,0,.67,0l7.16-7.16Zm8.78-.92L58.29,45.7,52.4,39.81l1.89-1.89a2,2,0,0,1,2.78,0L60.18,41a2,2,0,0,1,0,2.78Z"/><line class="cls-3" x1="47.13" y1="108.01" x2="47.13" y2="77.26"/><path class="cls-4" d="M50.89,77.48a3.76,3.76,0,1,0-3.76,3.76A3.76,3.76,0,0,0,50.89,77.48Z"/><path class="cls-2" d="M51.39,77.48a4.26,4.26,0,1,1-4.26-4.26,4.27,4.27,0,0,1,4.26,4.26Zm-7.52,0a3.26,3.26,0,1,0,3.26-3.26,3.26,3.26,0,0,0-3.26,3.26Z"/></g></g></svg>