<svg xmlns="http://www.w3.org/2000/svg" viewBox="0 0 98.1 108.51"><defs><style>.cls-1,.cls-2{fill:none;}.cls-1{stroke:#4cc7f1;stroke-miterlimit:10;}.cls-2{stroke:#4d514d;stroke-linecap:round;stroke-linejoin:round;}.cls-3{fill:#fff;}.cls-4{fill:#4d514d;}</style></defs><g id="Calque_2" data-name="Calque 2"><g id="Calque_1-2" data-name="Calque 1"><circle class="cls-1" cx="49.05" cy="49.05" r="48.55"/><line class="cls-2" x1="49.05" y1="108.01" x2="49.05" y2="77.26"/><path class="cls-3" d="M52.81,77.48a3.76,3.76,0,1,0-3.76,3.76A3.76,3.76,0,0,0,52.81,77.48Z"/><path class="cls-4" d="M53.31,77.48a4.26,4.26,0,1,1-4.26-4.26,4.26,4.26,0,0,1,4.26,4.26Zm-7.52,0a3.26,3.26,0,1,0,3.26-3.26,3.26,3.26,0,0,0-3.26,3.26Z"/><path class="cls-4" d="M48.43,35.29a9.64,9.64,0,0,0-5.57,17.14v5a5,5,0,0,0,5,5h2a5,5,0,0,0,5-5v-5a9.64,9.64,0,0,0-6.51-17.14Zm4.93,15.84-.42.3v6a3,3,0,0,1-3,3h-2a3,3,0,0,1-3-3v-6l-.42-.3a7.64,7.64,0,0,1,4.09-13.84h.37a7.64,7.64,0,0,1,4.46,13.85Z"/><path class="cls-4" d="M70.56,44.64H63.23a.5.5,0,0,0-.5.5.5.5,0,0,0,.5.5h7.33a.51.51,0,0,0,.5-.5A.5.5,0,0,0,70.56,44.64Z"/><path class="cls-4" d="M34.88,44.64H27.54a.5.5,0,0,0-.5.5.51.51,0,0,0,.5.5h7.34a.51.51,0,0,0,.5-.5A.5.5,0,0,0,34.88,44.64Z"/><path class="cls-4" d="M49.05,32.35a.5.5,0,0,0,.5-.5V24.52a.5.5,0,1,0-1,0v7.33A.5.5,0,0,0,49.05,32.35Z"/><path class="cls-4" d="M64.61,29.58a.5.5,0,0,0-.71,0l-5.18,5.18a.5.5,0,0,0,0,.71.52.52,0,0,0,.71,0l5.18-5.19A.48.48,0,0,0,64.61,29.58Z"/><path class="cls-4" d="M39.38,34.76,34.2,29.58a.5.5,0,0,0-.71,0,.48.48,0,0,0,0,.7l5.18,5.19a.54.54,0,0,0,.36.14.52.52,0,0,0,.35-.14A.5.5,0,0,0,39.38,34.76Z"/><path class="cls-4" d="M48.8,39a6,6,0,0,0-2.52,11.41V56a2.62,2.62,0,0,0,5.23,0V50.27A6,6,0,0,0,48.8,39Z"/></g></g></svg>