<svg xmlns="http://www.w3.org/2000/svg" viewBox="0 0 61.77 61.77"><defs><style>.cls-1{fill:none;stroke:#4cc7f1;stroke-miterlimit:10;}.cls-2,.cls-3{fill:#4d514d;}.cls-3{font-size:7px;font-family:Montserrat-Light, Montserrat;font-weight:300;}.cls-4{letter-spacing:-0.02em;}.cls-5{letter-spacing:-0.01em;}.cls-6{letter-spacing:0em;}</style></defs><g id="Calque_2" data-name="Calque 2"><g id="Calque_1-2" data-name="Calque 1"><circle class="cls-1" cx="30.89" cy="30.89" r="30.39"/><path class="cls-2" d="M36.49,19.48a6.4,6.4,0,0,1,6.4,6.41,6.4,6.4,0,0,1-10.63,4.8H29.51a6.39,6.39,0,0,1-8.76-.28,6.41,6.41,0,0,1,0-9,6.18,6.18,0,0,1,4.53-1.88Zm-7.21,7.21V25.08a.36.36,0,0,0-.11-.28.37.37,0,0,0-.29-.12h-2.4v-2.4a.36.36,0,0,0-.11-.28.38.38,0,0,0-.29-.12h-1.6a.38.38,0,0,0-.29.12.39.39,0,0,0-.11.28v2.4h-2.4a.38.38,0,0,0-.29.12.39.39,0,0,0-.11.28v1.61a.39.39,0,0,0,.11.28.38.38,0,0,0,.29.12h2.4v2.4a.44.44,0,0,0,.11.29.42.42,0,0,0,.29.11h1.6a.42.42,0,0,0,.29-.11.39.39,0,0,0,.11-.29v-2.4h2.4a.37.37,0,0,0,.29-.12A.36.36,0,0,0,29.28,26.69ZM36,28.62a1.55,1.55,0,0,0,.47-1.13A1.57,1.57,0,0,0,36,26.35a1.6,1.6,0,0,0-2.73,1.14,1.51,1.51,0,0,0,.47,1.13,1.59,1.59,0,0,0,2.26,0Zm3.2-3.2a1.61,1.61,0,0,0,0-2.27,1.59,1.59,0,0,0-2.26,0,1.61,1.61,0,0,0,0,2.27,1.59,1.59,0,0,0,2.26,0Z"/><text class="cls-3" transform="translate(11.03 46.95)">Jeu<tspan class="cls-4" x="12.3" y="0">x</tspan><tspan class="cls-5" x="15.78" y="0">-</tspan><tspan class="cls-6" x="18.37" y="0">vidéos</tspan></text></g></g></svg>