<svg xmlns="http://www.w3.org/2000/svg" viewBox="0 0 61.77 61.77"><defs><style>.cls-1,.cls-3{fill:#4d514d;}.cls-2{fill:none;stroke:#4cc7f1;stroke-miterlimit:10;}.cls-3{font-size:7px;font-family:Montserrat-Light, Montserrat;font-weight:300;}.cls-4{letter-spacing:-0.03em;}.cls-5{letter-spacing:-0.01em;}</style></defs><g id="Calque_2" data-name="Calque 2"><g id="Calque_1-2" data-name="Calque 1"><path class="cls-1" d="M40.46,16.71v14A1.64,1.64,0,0,1,40,31.78a2.76,2.76,0,0,1-1.07.75,6.38,6.38,0,0,1-1.29.4,5.85,5.85,0,0,1-1.2.13,5.71,5.71,0,0,1-1.2-.13,6.38,6.38,0,0,1-1.29-.4,2.8,2.8,0,0,1-1.08-.75,1.64,1.64,0,0,1-.42-1.11,1.67,1.67,0,0,1,.42-1.11A2.91,2.91,0,0,1,34,28.81a7.09,7.09,0,0,1,1.29-.4,5.71,5.71,0,0,1,1.2-.13,5.83,5.83,0,0,1,2.39.48V22.07l-9.57,3v8.83A1.64,1.64,0,0,1,28.87,35a2.8,2.8,0,0,1-1.08.75,6.38,6.38,0,0,1-1.29.4,5.71,5.71,0,0,1-1.2.13,5.85,5.85,0,0,1-1.2-.13,6.38,6.38,0,0,1-1.29-.4A2.76,2.76,0,0,1,21.74,35a1.64,1.64,0,0,1-.43-1.11,1.68,1.68,0,0,1,.43-1.11A2.87,2.87,0,0,1,22.81,32a7.09,7.09,0,0,1,1.29-.4,6,6,0,0,1,3.6.35v-12a1.13,1.13,0,0,1,.23-.7,1.22,1.22,0,0,1,.61-.44l10.37-3.19a1,1,0,0,1,.35-.05,1.2,1.2,0,0,1,1.2,1.19Z"/><circle class="cls-2" cx="30.89" cy="30.89" r="30.39"/><text class="cls-3" transform="translate(20.38 47.4)"><tspan class="cls-4">K</tspan><tspan x="4.7" y="0">-</tspan><tspan class="cls-5" x="7.37" y="0">P</tspan><tspan x="12.29" y="0">op</tspan></text></g></g></svg>