<svg xmlns="http://www.w3.org/2000/svg" viewBox="0 0 61.77 61.77"><defs><style>.cls-1{fill:none;stroke:#4cc7f1;stroke-miterlimit:10;}.cls-2,.cls-3{fill:#4d514d;}.cls-3{font-size:7px;font-family:Montserrat-Light, Montserrat;font-weight:300;}.cls-4{letter-spacing:0em;}.cls-5{letter-spacing:-0.02em;}</style></defs><g id="Calque_2" data-name="Calque 2"><g id="Calque_1-2" data-name="Calque 1"><circle class="cls-1" cx="30.89" cy="30.89" r="30.39"/><path class="cls-2" d="M37.91,20.14a2.56,2.56,0,0,1,2.55,2.55v8.94a2.56,2.56,0,0,1-2.55,2.56h-14a2.56,2.56,0,0,1-2.55-2.56V22.69a2.56,2.56,0,0,1,2.55-2.55H26.1l.51-1.36a1.77,1.77,0,0,1,.69-.84,1.74,1.74,0,0,1,1-.36h5.11a1.74,1.74,0,0,1,1,.36,1.86,1.86,0,0,1,.7.84l.5,1.36ZM27.73,30.32A4.47,4.47,0,0,0,34,24a4.47,4.47,0,0,0-6.31,6.32Zm1.12-5.19a2.87,2.87,0,1,1-.84,2A2.79,2.79,0,0,1,28.85,25.13Z"/><text class="cls-3" transform="translate(20.36 46.95)">P<tspan class="cls-4" x="5" y="0">h</tspan><tspan x="9.72" y="0">o</tspan><tspan class="cls-5" x="14.06" y="0">t</tspan><tspan x="16.72" y="0">o</tspan></text></g></g></svg>