<svg xmlns="http://www.w3.org/2000/svg" viewBox="0 0 61.77 61.77"><defs><style>.cls-1{fill:none;stroke:#4cc7f1;stroke-miterlimit:10;}.cls-2,.cls-3{fill:#4d514d;}.cls-3{font-size:7px;font-family:Montserrat-Light, Montserrat;font-weight:300;}</style></defs><g id="Calque_2" data-name="Calque 2"><g id="Calque_1-2" data-name="Calque 1"><circle class="cls-1" cx="30.89" cy="30.89" r="30.39"/><path class="cls-2" d="M39.8,20.39a1.65,1.65,0,0,1,.71.51,1.7,1.7,0,0,1,.21,1.54l-3.28,10.8a2.41,2.41,0,0,1-.91,1.28,2.35,2.35,0,0,1-1.46.52h-11a2.9,2.9,0,0,1-1.77-.64,3.26,3.26,0,0,1-1.18-1.56,2.21,2.21,0,0,1,0-1.52,2.72,2.72,0,0,1,0-.32c0-.18,0-.33.05-.44a1,1,0,0,0,0-.26.84.84,0,0,1,0-.23.77.77,0,0,1,.1-.25,2.59,2.59,0,0,1,.2-.28,2.33,2.33,0,0,0,.19-.28,7.91,7.91,0,0,0,.54-1.09,8,8,0,0,0,.36-1.09,1.06,1.06,0,0,0,0-.36.87.87,0,0,1,0-.33,1,1,0,0,1,.2-.34,1.42,1.42,0,0,0,.2-.27,6.43,6.43,0,0,0,.5-1.1,4.56,4.56,0,0,0,.3-1.07,1.48,1.48,0,0,0,0-.38.55.55,0,0,1,0-.34,1,1,0,0,1,.26-.36l.26-.27a5.11,5.11,0,0,0,.51-1A4.31,4.31,0,0,0,25,20.1a1,1,0,0,0,0-.3.74.74,0,0,1,0-.32.65.65,0,0,1,.1-.21l.22-.28a2.7,2.7,0,0,0,.2-.25,1.93,1.93,0,0,0,.2-.36q.11-.22.18-.42c.05-.13.11-.27.19-.43a1.91,1.91,0,0,1,.23-.38,1.49,1.49,0,0,1,.32-.28.81.81,0,0,1,.43-.14,2.58,2.58,0,0,1,.56.07v0a2.78,2.78,0,0,1,.61-.11h9.07a1.56,1.56,0,0,1,1.36.67A1.71,1.71,0,0,1,38.84,19l-3.27,10.8a4.85,4.85,0,0,1-.85,1.83,2.26,2.26,0,0,1-1.54.41H22.82a.53.53,0,0,0-.45.18.53.53,0,0,0,0,.51c.19.56.76.84,1.72.84h11a1.39,1.39,0,0,0,.67-.19.91.91,0,0,0,.42-.49l3.57-11.77a1.75,1.75,0,0,0,.06-.68ZM26.83,24a.36.36,0,0,0,0,.27.28.28,0,0,0,.24.11h7.25a.56.56,0,0,0,.31-.11.61.61,0,0,0,.19-.27l.25-.77a.29.29,0,0,0,0-.26.26.26,0,0,0-.24-.12H27.58a.48.48,0,0,0-.3.12.5.5,0,0,0-.2.26Zm1-3.05a.33.33,0,0,0,0,.26.26.26,0,0,0,.24.12h7.25a.51.51,0,0,0,.31-.12.53.53,0,0,0,.19-.26l.25-.77a.32.32,0,0,0,0-.27.28.28,0,0,0-.24-.11H28.57a.53.53,0,0,0-.3.11.56.56,0,0,0-.2.27Z"/><text class="cls-3" transform="translate(11.55 47.95)">Romans SF</text></g></g></svg>